<svg width="20" height="24" viewBox="0 0 20 24" fill="none" xmlns="http://www.w3.org/2000/svg">
<path d="M17.7778 0C18.3671 0 18.9324 0.252856 19.3491 0.702944C19.7659 1.15303 20 1.76348 20 2.4V16.8C20 17.4365 19.7659 18.047 19.3491 18.4971C18.9324 18.9471 18.3671 19.2 17.7778 19.2H15.5556V21.6C15.5556 22.2365 15.3214 22.847 14.9047 23.2971C14.4879 23.7471 13.9227 24 13.3333 24H2.22222C1.63285 24 1.06762 23.7471 0.650874 23.2971C0.234126 22.847 0 22.2365 0 21.6V7.2C0 6.56348 0.234126 5.95303 0.650874 5.50294C1.06762 5.05286 1.63285 4.8 2.22222 4.8H4.44444V2.4C4.44444 1.76348 4.67857 1.15303 5.09532 0.702944C5.51207 0.252856 6.0773 0 6.66667 0H17.7778ZM7.77778 15.6H5.55556C5.27236 15.6003 4.99996 15.7175 4.79403 15.9274C4.58811 16.1374 4.46418 16.4243 4.44759 16.7297C4.43099 17.035 4.52297 17.3357 4.70474 17.5702C4.88651 17.8047 5.14434 17.9555 5.42556 17.9916L5.55556 18H7.77778C8.06098 17.9997 8.33337 17.8825 8.5393 17.6726C8.74523 17.4626 8.86915 17.1757 8.88575 16.8703C8.90234 16.565 8.81036 16.2643 8.6286 16.0298C8.44683 15.7953 8.189 15.6445 7.90778 15.6084L7.77778 15.6ZM17.7778 2.4H6.66667V4.8H13.3333C13.9227 4.8 14.4879 5.05286 14.9047 5.50294C15.3214 5.95303 15.5556 6.56348 15.5556 7.2V16.8H17.7778V2.4ZM10 10.8H5.55556C5.26087 10.8 4.97826 10.9264 4.76988 11.1515C4.56151 11.3765 4.44444 11.6817 4.44444 12C4.44444 12.3183 4.56151 12.6235 4.76988 12.8485C4.97826 13.0736 5.26087 13.2 5.55556 13.2H10C10.2947 13.2 10.5773 13.0736 10.7857 12.8485C10.994 12.6235 11.1111 12.3183 11.1111 12C11.1111 11.6817 10.994 11.3765 10.7857 11.1515C10.5773 10.9264 10.2947 10.8 10 10.8Z" fill="#CA0AFD"/>
</svg>
