<svg width="24" height="24" viewBox="0 0 24 24" fill="none" xmlns="http://www.w3.org/2000/svg">
<g clip-path="url(#clip0_5_38)">
<path d="M9 3.5H19C19.3978 3.5 19.7792 3.65815 20.0605 3.93945C20.3419 4.22076 20.5 4.60218 20.5 5V17C20.5 17.3978 20.3419 17.7792 20.0605 18.0605C19.7792 18.3419 19.3978 18.5 19 18.5H16.5V21C16.5 21.3978 16.3419 21.7792 16.0605 22.0605C15.7792 22.3419 15.3978 22.5 15 22.5H5C4.60218 22.5 4.22076 22.3419 3.93945 22.0605C3.65815 21.7792 3.5 21.3978 3.5 21V9C3.5 8.60218 3.65815 8.22076 3.93945 7.93945C4.22076 7.65815 4.60218 7.5 5 7.5H7.5V5C7.5 4.60218 7.65815 4.22076 7.93945 3.93945C8.22076 3.65815 8.60218 3.5 9 3.5ZM7.99902 15.5C7.61695 15.5005 7.24956 15.6469 6.97168 15.9092C6.69368 16.1716 6.52631 16.5304 6.50391 16.9121C6.4815 17.2938 6.60522 17.6697 6.85059 17.9629C7.09597 18.2561 7.44457 18.4441 7.82422 18.4893L7.83887 18.4912L7.85352 18.4922L7.96973 18.499L7.98535 18.5H10.001C10.3831 18.4995 10.7504 18.3531 11.0283 18.0908C11.3063 17.8284 11.4737 17.4696 11.4961 17.0879C11.5185 16.7062 11.3948 16.3303 11.1494 16.0371C10.904 15.7439 10.5554 15.5559 10.1758 15.5107L10.1611 15.5088L10.1465 15.5078L10.0303 15.501L10.0146 15.5H7.99902ZM8.5 7.5H15C15.3978 7.5 15.7792 7.65815 16.0605 7.93945C16.3419 8.22076 16.5 8.60218 16.5 9V17.5H19.5V4.5H8.5V7.5ZM8 11.5C7.60218 11.5 7.22076 11.6581 6.93945 11.9395C6.65815 12.2208 6.5 12.6022 6.5 13C6.5 13.3978 6.65815 13.7792 6.93945 14.0605C7.22076 14.3419 7.60218 14.5 8 14.5H12C12.3978 14.5 12.7792 14.3419 13.0605 14.0605C13.3419 13.7792 13.5 13.3978 13.5 13C13.5 12.6022 13.3419 12.2208 13.0605 11.9395C12.7792 11.6581 12.3978 11.5 12 11.5H8Z" fill="white" stroke="white"/>
</g>
<defs>
<clipPath id="clip0_5_38">
<rect width="24" height="24" fill="white"/>
</clipPath>
</defs>
</svg>
