<svg width="18" height="18" viewBox="0 0 18 18" fill="none" xmlns="http://www.w3.org/2000/svg">
<path d="M10.2188 1.35633C10.6395 0.928943 11.1406 0.589057 11.6932 0.356274C12.2458 0.123491 12.8391 0.0024178 13.4387 3.58441e-05C14.0384 -0.00234611 14.6326 0.11401 15.1871 0.342395C15.7415 0.570781 16.2453 0.906675 16.6693 1.33071C17.0933 1.75474 17.4292 2.25853 17.6576 2.81301C17.886 3.36749 18.0023 3.9617 18 4.56138C17.9976 5.16105 17.8765 5.75431 17.6437 6.30696C17.411 6.85961 17.0711 7.36071 16.6437 7.78137L13.7584 10.6668L12.4109 9.3212L15.2963 6.43484C15.7913 5.94008 16.0695 5.26893 16.0696 4.56905C16.0698 3.86916 15.792 3.19788 15.2972 2.70286C14.8025 2.20784 14.1313 1.92964 13.4315 1.92946C12.7316 1.92928 12.0603 2.20714 11.5653 2.7019L8.67904 5.58827L7.33256 4.24174L10.2188 1.35633ZM12.2376 7.1081L7.08116 12.2637L5.73467 10.9172L10.8902 5.76158L12.2376 7.1081ZM5.56231 8.70413L2.67698 11.5905C2.18198 12.0855 1.90389 12.7569 1.90389 13.457C1.90389 14.157 2.18198 14.8284 2.67698 15.3234C3.17199 15.8184 3.84336 16.0965 4.5434 16.0965C5.24344 16.0965 5.91482 15.8184 6.40982 15.3234L9.29515 12.4371L10.6416 13.7836L7.75631 16.669C6.90432 17.5211 5.74872 17.9999 4.54374 18C3.33875 18.0001 2.18309 17.5215 1.33097 16.6695C0.478854 15.8175 8.93037e-05 14.6618 1.24921e-08 13.4568C-8.92787e-05 12.2518 0.478504 11.0961 1.33049 10.244L4.21583 7.35855L5.56231 8.70413Z" fill="#CA0AFD"/>
</svg>
