<svg width="26" height="26" viewBox="0 0 26 26" fill="none" xmlns="http://www.w3.org/2000/svg">
<path d="M4.33333 4.33333H10.8333V10.8333H4.33333V4.33333ZM21.6667 4.33333V10.8333H15.1667V4.33333H21.6667ZM15.1667 16.25H17.3333V14.0833H15.1667V11.9167H17.3333V14.0833H19.5V11.9167H21.6667V14.0833H19.5V16.25H21.6667V19.5H19.5V21.6667H17.3333V19.5H14.0833V21.6667H11.9167V17.3333H15.1667V16.25ZM17.3333 16.25V19.5H19.5V16.25H17.3333ZM4.33333 21.6667V15.1667H10.8333V21.6667H4.33333ZM6.5 6.5V8.66667H8.66667V6.5H6.5ZM17.3333 6.5V8.66667H19.5V6.5H17.3333ZM6.5 17.3333V19.5H8.66667V17.3333H6.5ZM4.33333 11.9167H6.5V14.0833H4.33333V11.9167ZM9.75 11.9167H14.0833V16.25H11.9167V14.0833H9.75V11.9167ZM11.9167 6.5H14.0833V10.8333H11.9167V6.5ZM2.16667 2.16667V6.5H0V2.16667C0 1.59203 0.228273 1.04093 0.634602 0.634602C1.04093 0.228273 1.59203 0 2.16667 0L6.5 0V2.16667H2.16667ZM23.8333 0C24.408 0 24.9591 0.228273 25.3654 0.634602C25.7717 1.04093 26 1.59203 26 2.16667V6.5H23.8333V2.16667H19.5V0H23.8333ZM2.16667 19.5V23.8333H6.5V26H2.16667C1.59203 26 1.04093 25.7717 0.634602 25.3654C0.228273 24.9591 0 24.408 0 23.8333V19.5H2.16667ZM23.8333 23.8333V19.5H26V23.8333C26 24.408 25.7717 24.9591 25.3654 25.3654C24.9591 25.7717 24.408 26 23.8333 26H19.5V23.8333H23.8333Z" fill="#CA0AFD"/>
</svg>
