<svg width="26" height="29" viewBox="0 0 26 29" fill="none" xmlns="http://www.w3.org/2000/svg">
<path fill-rule="evenodd" clip-rule="evenodd" d="M11.986 0.183804C12.6398 -0.0612681 13.3602 -0.0612681 14.014 0.183804L24.1251 3.97547C24.6759 4.18193 25.1505 4.55159 25.4856 5.03505C25.8206 5.51851 26.0001 6.09271 26 6.68091V14.4275C26.0001 16.8418 25.3278 19.2084 24.0586 21.2621C22.7893 23.3158 20.9733 24.9755 18.8139 26.0553L13.9692 28.4761C13.6683 28.6266 13.3365 28.705 13 28.705C12.6635 28.705 12.3317 28.6266 12.0308 28.4761L7.18611 26.0538C5.02672 24.9741 3.21066 23.3144 1.94143 21.2606C0.672203 19.2069 -5.15046e-05 16.8403 5.63568e-07 14.426V6.68236C-0.000366903 6.09391 0.178975 5.51939 0.514032 5.03564C0.849089 4.5519 1.32388 4.18202 1.87489 3.97547L11.986 0.183804ZM14.4444 13.9595C14.9952 13.6415 15.4255 13.1507 15.6689 12.5632C15.9122 11.9756 15.9549 11.3242 15.7903 10.71C15.6257 10.0957 15.2631 9.55295 14.7586 9.16582C14.2541 8.77868 13.6359 8.56883 13 8.5688C12.3641 8.56883 11.7459 8.77868 11.2414 9.16582C10.7369 9.55295 10.3743 10.0957 10.2097 10.71C10.0451 11.3242 10.0878 11.9756 10.3311 12.5632C10.5745 13.1507 11.0048 13.6415 11.5556 13.9595V18.6799C11.5556 19.063 11.7077 19.4304 11.9786 19.7013C12.2495 19.9722 12.6169 20.1244 13 20.1244C13.3831 20.1244 13.7505 19.9722 14.0214 19.7013C14.2923 19.4304 14.4444 19.063 14.4444 18.6799V13.9595Z" fill="#CA0AFD"/>
</svg>
