<svg width="30" height="31" viewBox="0 0 30 31" fill="none" xmlns="http://www.w3.org/2000/svg">
<path d="M17.9688 12.4172C17.4231 11.8504 16.7753 11.4008 16.0622 11.094C15.3492 10.7873 14.5849 10.6294 13.8131 10.6294C13.0413 10.6294 12.277 10.7873 11.564 11.094C10.8509 11.4008 10.2031 11.8504 9.65741 12.4172L3.72073 18.5837C2.6188 19.7281 1.99984 21.2803 2 22.8986C2.00016 24.517 2.61944 26.069 3.72159 27.2132C4.82375 28.3574 6.3185 29.0002 7.87702 29C9.43554 28.9998 10.9302 28.3568 12.0321 27.2123L12.5885 26.6651M12.0321 18.5837C12.5778 19.1505 13.2256 19.6001 13.9387 19.9069C14.6517 20.2136 15.416 20.3715 16.1878 20.3715C16.9596 20.3715 17.7238 20.2136 18.4369 19.9069C19.1499 19.6001 19.7978 19.1505 20.3435 18.5837L26.2784 12.4172C27.3806 11.273 27.9998 9.72101 28 8.10265C28.0002 6.4843 27.3812 4.93216 26.2793 3.78769C25.1773 2.64322 23.6827 2.00017 22.1242 2C20.5657 1.99983 19.0709 2.64256 17.9688 3.78679L16.1869 5.51648" stroke="#CA0AFD" stroke-width="4" stroke-linecap="round" stroke-linejoin="round"/>
</svg>
